<mxfile host="app.diagrams.net" modified="2022-05-10T05:37:07.820Z" agent="5.0 (Windows NT 10.0; Win64; x64) AppleWebKit/537.36 (KHTML, like Gecko) Chrome/101.0.4951.54 Safari/537.36" etag="LLrFyXPqNUjUNjI7d0sd" version="18.0.2" type="github">
  <diagram id="G9MN2iTjArbfb_0_WIww" name="Page-1">
    <mxGraphModel dx="1153" dy="599" grid="1" gridSize="10" guides="1" tooltips="1" connect="1" arrows="1" fold="1" page="1" pageScale="1" pageWidth="850" pageHeight="1100" math="0" shadow="0">
      <root>
        <mxCell id="0" />
        <mxCell id="1" parent="0" />
        <mxCell id="qzMvyXJ3kqfOXexccfyW-1" value="" style="rounded=0;whiteSpace=wrap;html=1;" vertex="1" parent="1">
          <mxGeometry x="250" width="350" height="570" as="geometry" />
        </mxCell>
        <mxCell id="qzMvyXJ3kqfOXexccfyW-2" value="Mark Studnet Attendance and Marks" style="ellipse;whiteSpace=wrap;html=1;align=center;" vertex="1" parent="1">
          <mxGeometry x="375" y="10" width="105" height="60" as="geometry" />
        </mxCell>
        <mxCell id="qzMvyXJ3kqfOXexccfyW-3" value="Teacher" style="shape=umlActor;verticalLabelPosition=bottom;verticalAlign=top;html=1;" vertex="1" parent="1">
          <mxGeometry x="80" y="70" width="30" height="60" as="geometry" />
        </mxCell>
        <mxCell id="qzMvyXJ3kqfOXexccfyW-4" value="Departmental &lt;br&gt;Staff" style="shape=umlActor;verticalLabelPosition=bottom;verticalAlign=top;html=1;" vertex="1" parent="1">
          <mxGeometry x="80" y="230" width="30" height="60" as="geometry" />
        </mxCell>
        <mxCell id="qzMvyXJ3kqfOXexccfyW-5" value="Student" style="shape=umlActor;verticalLabelPosition=bottom;verticalAlign=top;html=1;" vertex="1" parent="1">
          <mxGeometry x="690" y="230" width="30" height="60" as="geometry" />
        </mxCell>
        <mxCell id="qzMvyXJ3kqfOXexccfyW-7" value="Make Study Material&lt;span style=&quot;color: rgba(0, 0, 0, 0); font-family: monospace; font-size: 0px; text-align: start;&quot;&gt;%3CmxGraphModel%3E%3Croot%3E%3CmxCell%20id%3D%220%22%2F%3E%3CmxCell%20id%3D%221%22%20parent%3D%220%22%2F%3E%3CmxCell%20id%3D%222%22%20value%3D%22Mark%20Studnet%20Attendance%20and%20Marks%22%20style%3D%22ellipse%3BwhiteSpace%3Dwrap%3Bhtml%3D1%3Balign%3Dcenter%3B%22%20vertex%3D%221%22%20parent%3D%221%22%3E%3CmxGeometry%20x%3D%22375%22%20y%3D%2210%22%20width%3D%22105%22%20height%3D%2260%22%20as%3D%22geometry%22%2F%3E%3C%2FmxCell%3E%3C%2Froot%3E%3C%2FmxGraphModel%3E&lt;/span&gt;" style="ellipse;whiteSpace=wrap;html=1;align=center;" vertex="1" parent="1">
          <mxGeometry x="373" y="80" width="105" height="60" as="geometry" />
        </mxCell>
        <mxCell id="qzMvyXJ3kqfOXexccfyW-8" value="Give&lt;span style=&quot;color: rgba(0, 0, 0, 0); font-family: monospace; font-size: 0px; text-align: start;&quot;&gt;%3CmxGraphModel%3E%3Croot%3E%3CmxCell%20id%3D%220%22%2F%3E%3CmxCell%20id%3D%221%22%20parent%3D%220%22%2F%3E%3CmxCell%20id%3D%222%22%20value%3D%22Make%20Study%20Material%26lt%3Bspan%20style%3D%26quot%3Bcolor%3A%20rgba(0%2C%200%2C%200%2C%200)%3B%20font-family%3A%20monospace%3B%20font-size%3A%200px%3B%20text-align%3A%20start%3B%26quot%3B%26gt%3B%253CmxGraphModel%253E%253Croot%253E%253CmxCell%2520id%253D%25220%2522%252F%253E%253CmxCell%2520id%253D%25221%2522%2520parent%253D%25220%2522%252F%253E%253CmxCell%2520id%253D%25222%2522%2520value%253D%2522Mark%2520Studnet%2520Attendance%2520and%2520Marks%2522%2520style%253D%2522ellipse%253BwhiteSpace%253Dwrap%253Bhtml%253D1%253Balign%253Dcenter%253B%2522%2520vertex%253D%25221%2522%2520parent%253D%25221%2522%253E%253CmxGeometry%2520x%253D%2522375%2522%2520y%253D%252210%2522%2520width%253D%2522105%2522%2520height%253D%252260%2522%2520as%253D%2522geometry%2522%252F%253E%253C%252FmxCell%253E%253C%252Froot%253E%253C%252FmxGraphModel%253E%26lt%3B%2Fspan%26gt%3B%22%20style%3D%22ellipse%3BwhiteSpace%3Dwrap%3Bhtml%3D1%3Balign%3Dcenter%3B%22%20vertex%3D%221%22%20parent%3D%221%22%3E%3CmxGeometry%20x%3D%22373%22%20y%3D%2280%22%20width%3D%22105%22%20height%3D%2260%22%20as%3D%22geometry%22%2F%3E%3C%2FmxCell%3E%3C%2Froot%3E%3C%2FmxGraphModel%3E&lt;/span&gt;&lt;br&gt;Information" style="ellipse;whiteSpace=wrap;html=1;align=center;" vertex="1" parent="1">
          <mxGeometry x="375" y="150" width="105" height="60" as="geometry" />
        </mxCell>
        <mxCell id="qzMvyXJ3kqfOXexccfyW-11" value="Account &lt;br&gt;Management&lt;br&gt;Staff" style="shape=umlActor;verticalLabelPosition=bottom;verticalAlign=top;html=1;" vertex="1" parent="1">
          <mxGeometry x="80" y="390" width="30" height="60" as="geometry" />
        </mxCell>
        <mxCell id="qzMvyXJ3kqfOXexccfyW-12" value="Manage Registration" style="ellipse;whiteSpace=wrap;html=1;align=center;" vertex="1" parent="1">
          <mxGeometry x="375" y="360" width="105" height="60" as="geometry" />
        </mxCell>
        <mxCell id="qzMvyXJ3kqfOXexccfyW-13" value="Pay Fees" style="ellipse;whiteSpace=wrap;html=1;align=center;" vertex="1" parent="1">
          <mxGeometry x="375" y="430" width="105" height="60" as="geometry" />
        </mxCell>
        <mxCell id="qzMvyXJ3kqfOXexccfyW-15" value="Make and MAintainResult&amp;nbsp;" style="ellipse;whiteSpace=wrap;html=1;align=center;" vertex="1" parent="1">
          <mxGeometry x="373" y="220" width="105" height="60" as="geometry" />
        </mxCell>
        <mxCell id="qzMvyXJ3kqfOXexccfyW-16" value="Maintain &lt;br&gt;Database of teachers and students" style="ellipse;whiteSpace=wrap;html=1;align=center;" vertex="1" parent="1">
          <mxGeometry x="373" y="290" width="105" height="60" as="geometry" />
        </mxCell>
        <mxCell id="qzMvyXJ3kqfOXexccfyW-18" value="Maintain Student Account" style="ellipse;whiteSpace=wrap;html=1;align=center;" vertex="1" parent="1">
          <mxGeometry x="375" y="500" width="105" height="60" as="geometry" />
        </mxCell>
        <mxCell id="qzMvyXJ3kqfOXexccfyW-20" value="" style="endArrow=none;html=1;rounded=0;entryX=0;entryY=0.5;entryDx=0;entryDy=0;" edge="1" parent="1" target="qzMvyXJ3kqfOXexccfyW-2">
          <mxGeometry width="50" height="50" relative="1" as="geometry">
            <mxPoint x="120" y="100" as="sourcePoint" />
            <mxPoint x="170" y="50" as="targetPoint" />
          </mxGeometry>
        </mxCell>
        <mxCell id="qzMvyXJ3kqfOXexccfyW-21" value="" style="endArrow=none;html=1;rounded=0;entryX=0;entryY=0.5;entryDx=0;entryDy=0;" edge="1" parent="1" target="qzMvyXJ3kqfOXexccfyW-7">
          <mxGeometry width="50" height="50" relative="1" as="geometry">
            <mxPoint x="120" y="120" as="sourcePoint" />
            <mxPoint x="385.00000000000273" y="50" as="targetPoint" />
          </mxGeometry>
        </mxCell>
        <mxCell id="qzMvyXJ3kqfOXexccfyW-22" value="" style="endArrow=none;html=1;rounded=0;entryX=0;entryY=0.5;entryDx=0;entryDy=0;" edge="1" parent="1" target="qzMvyXJ3kqfOXexccfyW-8">
          <mxGeometry width="50" height="50" relative="1" as="geometry">
            <mxPoint x="120" y="130" as="sourcePoint" />
            <mxPoint x="383" y="120" as="targetPoint" />
          </mxGeometry>
        </mxCell>
        <mxCell id="qzMvyXJ3kqfOXexccfyW-23" value="" style="endArrow=none;html=1;rounded=0;" edge="1" parent="1">
          <mxGeometry width="50" height="50" relative="1" as="geometry">
            <mxPoint x="478" y="190" as="sourcePoint" />
            <mxPoint x="680" y="240" as="targetPoint" />
          </mxGeometry>
        </mxCell>
        <mxCell id="qzMvyXJ3kqfOXexccfyW-24" value="" style="endArrow=none;html=1;rounded=0;entryX=0;entryY=0.5;entryDx=0;entryDy=0;" edge="1" parent="1" target="qzMvyXJ3kqfOXexccfyW-15">
          <mxGeometry width="50" height="50" relative="1" as="geometry">
            <mxPoint x="120" y="260" as="sourcePoint" />
            <mxPoint x="355.00000000000273" y="320" as="targetPoint" />
          </mxGeometry>
        </mxCell>
        <mxCell id="qzMvyXJ3kqfOXexccfyW-25" value="" style="endArrow=none;html=1;rounded=0;entryX=0;entryY=0.5;entryDx=0;entryDy=0;" edge="1" parent="1" target="qzMvyXJ3kqfOXexccfyW-16">
          <mxGeometry width="50" height="50" relative="1" as="geometry">
            <mxPoint x="120" y="270" as="sourcePoint" />
            <mxPoint x="355.00000000000273" y="330" as="targetPoint" />
          </mxGeometry>
        </mxCell>
        <mxCell id="qzMvyXJ3kqfOXexccfyW-26" value="" style="endArrow=none;html=1;rounded=0;entryX=0;entryY=0.5;entryDx=0;entryDy=0;" edge="1" parent="1" target="qzMvyXJ3kqfOXexccfyW-12">
          <mxGeometry width="50" height="50" relative="1" as="geometry">
            <mxPoint x="120" y="290" as="sourcePoint" />
            <mxPoint x="355.00000000000273" y="350" as="targetPoint" />
          </mxGeometry>
        </mxCell>
        <mxCell id="qzMvyXJ3kqfOXexccfyW-27" value="" style="endArrow=none;html=1;rounded=0;entryX=0;entryY=0.5;entryDx=0;entryDy=0;exitX=1;exitY=0.5;exitDx=0;exitDy=0;" edge="1" parent="1" source="qzMvyXJ3kqfOXexccfyW-13">
          <mxGeometry width="50" height="50" relative="1" as="geometry">
            <mxPoint x="440" y="220" as="sourcePoint" />
            <mxPoint x="675.0000000000027" y="280" as="targetPoint" />
          </mxGeometry>
        </mxCell>
        <mxCell id="qzMvyXJ3kqfOXexccfyW-28" value="" style="endArrow=none;html=1;rounded=0;entryX=0;entryY=0.5;entryDx=0;entryDy=0;" edge="1" parent="1" target="qzMvyXJ3kqfOXexccfyW-13">
          <mxGeometry width="50" height="50" relative="1" as="geometry">
            <mxPoint x="120" y="430" as="sourcePoint" />
            <mxPoint x="170" y="380" as="targetPoint" />
          </mxGeometry>
        </mxCell>
        <mxCell id="qzMvyXJ3kqfOXexccfyW-29" value="" style="endArrow=none;html=1;rounded=0;entryX=0;entryY=0.5;entryDx=0;entryDy=0;" edge="1" parent="1" target="qzMvyXJ3kqfOXexccfyW-18">
          <mxGeometry width="50" height="50" relative="1" as="geometry">
            <mxPoint x="118" y="440" as="sourcePoint" />
            <mxPoint x="373.00000000000273" y="470" as="targetPoint" />
          </mxGeometry>
        </mxCell>
        <mxCell id="qzMvyXJ3kqfOXexccfyW-30" value="Aditya&amp;nbsp;&lt;br style=&quot;font-size: 18px;&quot;&gt;Sharma&lt;br style=&quot;font-size: 18px;&quot;&gt;UID: 20BCS9872" style="text;html=1;strokeColor=none;fillColor=none;align=center;verticalAlign=middle;whiteSpace=wrap;rounded=0;fontSize=18;" vertex="1" parent="1">
          <mxGeometry x="600" y="40" width="150" height="100" as="geometry" />
        </mxCell>
      </root>
    </mxGraphModel>
  </diagram>
</mxfile>
